PathFileType	4	(X/Y/Z)	c:/Users/goper/Files/vsCode/490R/osim_files/A01/A01_PWS_01.trc
DataRate	CameraRate	NumFrames	NumMarkers	Units                	OrigDataRate	OrigDataStartFrame	OrigNumFrames
120.00	120.00	4	36	mm	120.0	850	1132
                Frame#	Time	Mobility_markerset:LPSIS			Mobility_markerset:LASIS			Mobility_markerset:LTH1			Mobility_markerset:LTH2			Mobility_markerset:LTH3			Mobility_markerset:LTH4			Mobility_markerset:LLFE			Mobility_markerset:LMFE			Mobility_markerset:LSH1			Mobility_markerset:LSH2			Mobility_markerset:LSH3			Mobility_markerset:LSH4			Mobility_markerset:LLMAL			Mobility_markerset:LMMAL			Mobility_markerset:LCAL			Mobility_markerset:LMTP5			Mobility_markerset:LTOE			Mobility_markerset:LMTP1			Mobility_markerset:RPSIS			Mobility_markerset:RASIS			Mobility_markerset:RTH1			Mobility_markerset:RTH2			Mobility_markerset:RTH3			Mobility_markerset:RTH4			Mobility_markerset:RLFE			Mobility_markerset:RMFE			Mobility_markerset:RSH1			Mobility_markerset:RSH2			Mobility_markerset:RSH3			Mobility_markerset:RSH4			Mobility_markerset:RLMAL			Mobility_markerset:RMMAL			Mobility_markerset:RCAL			Mobility_markerset:RMTP1			Mobility_markerset:RTOE			Mobility_markerset:RMTP5		
		X1	Y1	Z1	X2	Y2	Z2	X3	Y3	Z3	X4	Y4	Z4	X5	Y5	Z5	X6	Y6	Z6	X7	Y7	Z7	X8	Y8	Z8	X9	Y9	Z9	X10	Y10	Z10	X11	Y11	Z11	X12	Y12	Z12	X13	Y13	Z13	X14	Y14	Z14	X15	Y15	Z15	X16	Y16	Z16	X17	Y17	Z17	X18	Y18	Z18	X19	Y19	Z19	X20	Y20	Z20	X21	Y21	Z21	X22	Y22	Z22	X23	Y23	Z23	X24	Y24	Z24	X25	Y25	Z25	X26	Y26	Z26	X27	Y27	Z27	X28	Y28	Z28	X29	Y29	Z29	X30	Y30	Z30	X31	Y31	Z31	X32	Y32	Z32	X33	Y33	Z33	X34	Y34	Z34	X35	Y35	Z35	X36	Y36	Z36

850	7.07500	0.00000	0.00000	0.00000	-3035.96118	1010.18896	482.72800	-3003.34668	683.27545	535.14557	-3022.08765	640.06604	522.79529	-3059.24438	704.09149	531.22046	-3070.45728	661.64380	518.22253	-3077.09424	542.37109	476.64172	-3091.81006	554.75543	339.28345	-3049.14551	377.05969	458.73318	-3052.52979	330.02521	460.53082	-3111.85938	375.58603	456.80548	-3105.18359	330.16068	456.60504	-3079.79395	89.36756	428.67545	-3072.13501	90.10269	350.08554	-3002.31323	58.04693	387.96606	-3223.39917	43.95043	448.42520	-3250.09033	69.52830	382.16241	-3234.93774	56.48918	348.49158	-2776.77075	1023.56171	314.54352	-3000.92676	979.61115	229.04944	-2844.97266	649.62610	150.49280	-2854.50757	606.73334	154.44949	-2907.70557	655.24518	148.55339	-2907.72046	612.48566	151.26028	-2886.92480	463.09778	182.57724	-2911.00586	467.10709	303.53412	0.00000	0.00000	0.00000	-2643.21973	361.94928	181.38631	-2713.34326	345.10181	174.64186	-2675.69873	320.23431	175.01724	-2525.31299	230.49483	208.81721	-2554.81665	222.35709	292.67929	-2479.11108	265.96420	257.00024	-2552.93091	81.46553	311.66531	-2583.34131	67.27695	266.68057	-2531.14404	79.70500	198.16624
851	7.08333	0.00000	0.00000	0.00000	-3045.44531	1011.75195	484.50354	-3010.20215	683.63837	536.52570	-3028.52344	640.21814	523.93549	-3066.31445	704.06158	532.52148	-3077.13696	661.61731	519.38586	-3082.60034	542.39325	477.50317	-3097.19409	554.78864	340.16608	-3052.58643	377.50043	459.30655	-3055.71851	330.37286	461.07285	-3115.49878	375.17477	457.30179	-3108.45410	330.00775	457.09750	-3080.10767	89.35915	428.72321	-3072.52783	90.25919	350.19257	-3002.48999	58.39417	388.08801	-3223.65186	43.66105	448.45670	-3250.28638	68.98544	382.22250	-3235.21948	56.16510	348.49164	-2785.28833	1023.55786	316.12604	-3009.71558	980.55542	231.19324	-2861.07129	647.73254	150.30624	-2872.08862	605.13922	154.31969	-2922.84521	654.32941	149.05312	-2924.83350	612.47223	151.35091	-2906.17310	462.79974	182.18964	-2932.14648	466.24930	302.21512	-2696.37915	396.59085	180.74966	-2662.15088	366.48660	180.33287	-2732.62061	347.89389	173.63510	-2693.84863	323.99527	173.60715	-2542.08936	238.10089	207.14816	-2570.59375	228.87985	291.34497	-2498.49048	276.34775	254.73450	-2561.40771	87.67048	310.38858	-2592.10889	69.68763	265.72089	-2539.93262	87.07115	197.47702
852	7.09167	0.00000	0.00000	0.00000	-3054.43774	1012.97998	486.25348	-3016.82568	683.94849	537.74945	-3034.88696	640.47351	525.22595	-3073.20044	704.15277	533.72272	-3084.26489	661.83099	520.49432	-3087.80249	542.39111	478.35196	-3102.34741	554.81317	340.99216	-3055.99048	377.88675	459.90985	-3058.66162	330.62244	461.49899	-3119.10864	374.79037	458.03003	-3111.49023	329.79541	457.62183	-3080.37549	89.39964	428.81339	-3072.90210	90.52469	350.04773	-3002.48267	58.84235	388.15594	-3223.90869	43.40945	448.41870	-3250.59058	68.43012	382.19220	-3235.47461	55.84192	348.45868	-2793.85596	1023.54315	317.95151	-3018.84937	981.52032	233.06323	-2877.28247	646.74286	150.28372	-2889.17114	604.34528	154.18253	-2939.59009	655.68475	148.82651	-2941.81201	612.88342	151.42241	-2927.02734	463.22000	182.00995	-2952.95679	466.26648	301.51221	-2716.27051	399.46512	179.98477	-2681.40479	370.84821	179.24713	-2751.50928	350.70422	172.59630	-2712.32471	327.63232	172.25462	-2560.11084	244.70715	206.04315	-2587.14404	234.96381	290.07349	-2518.30615	285.58664	252.61758	-2571.44214	93.43546	309.12433	-2601.13867	71.01620	265.03647	-2549.94360	94.11978	196.86163
853	7.10000	0.00000	0.00000	0.00000	-3063.02783	1013.82776	487.93719	-3023.44995	684.50824	539.10077	-3041.10132	640.84442	526.38214	-3079.99902	704.27679	534.83820	-3090.57031	661.81696	521.55096	-3092.64233	542.25641	479.29248	-3107.21387	554.83313	341.92813	-3059.60205	378.03537	460.58966	-3061.49561	330.82330	462.05215	-3122.34521	374.52753	458.66360	-3114.20581	329.41901	458.13763	-3080.68726	89.45704	428.95825	-3073.52954	90.62177	350.09396	-3002.66089	59.15561	388.31470	-3224.12549	43.11590	448.41235	-3250.93384	67.98992	382.20282	-3235.71777	55.42050	348.49744	-2802.30396	1023.42444	319.93723	-3027.47754	982.12408	234.65628	-2893.44238	646.80469	150.61472	-2906.10596	604.58197	154.20242	-2954.84668	655.88800	149.42705	-2958.52808	614.01251	151.33026	-2945.88965	464.07187	181.37141	-2973.19263	467.07761	301.40799	-2736.74023	403.24103	178.92488	-2701.53564	374.45288	178.28740	-2770.00928	353.51373	171.66524	-2730.53931	330.74719	171.09033	-2578.07153	250.85513	204.55717	-2604.45605	240.45375	289.02908	-2538.25488	293.75363	250.92244	-2582.64746	98.25210	307.90390	-2610.59375	70.39151	264.72943	-2561.41187	100.57487	196.38037
